<?xml version="1.0" standalone="no"?>
<!DOCTYPE svg PUBLIC "-//W3C//DTD SVG 20010904//EN"
 "http://www.w3.org/TR/2001/REC-SVG-20010904/DTD/svg10.dtd">
<svg version="1.0" xmlns="http://www.w3.org/2000/svg"
 width="287.000000pt" height="100.000000pt" viewBox="0 0 287.000000 100.000000"
 preserveAspectRatio="xMidYMid meet">

<g transform="translate(0.000000,100.000000) scale(0.100000,-0.100000)"
fill="#000000" stroke="none">
<path d="M110 500 l0 -460 515 0 515 0 0 460 0 460 -515 0 -515 0 0 -460z
m941 5 c-1 -203 -1 -373 -1 -377 0 -5 -191 -8 -425 -8 l-425 0 0 380 0 380
425 -2 426 -3 0 -370z"/>
<path d="M1985 922 c49 -14 75 -32 85 -58 17 -44 12 -83 -15 -110 -20 -20 -33
-25 -68 -22 l-42 3 -3 93 c-1 50 -7 92 -12 92 -5 0 -10 -45 -12 -100 l-3 -100
53 0 c85 0 132 37 132 105 0 59 -33 92 -102 100 -34 4 -37 3 -13 -3z"/>
<path d="M1246 863 c-4 -32 -9 -77 -13 -100 -3 -28 -1 -43 6 -43 9 0 17 83 12
127 -1 6 2 14 7 17 5 3 23 -27 41 -67 37 -81 40 -81 83 18 12 30 26 55 31 55
4 0 7 -17 7 -37 0 -61 12 -113 25 -113 9 0 10 11 4 43 -5 23 -12 69 -17 102
l-8 60 -40 -85 -41 -85 -41 83 c-23 45 -44 82 -46 82 -2 0 -7 -26 -10 -57z"/>
<path d="M1573 904 c-4 -10 -21 -56 -39 -102 -18 -46 -27 -81 -21 -79 6 2 16
20 20 40 6 24 15 37 25 37 13 0 14 2 4 8 -9 6 -10 16 -1 40 14 40 26 41 34 1
5 -22 3 -34 -6 -40 -11 -7 -10 -9 4 -9 12 0 24 -14 34 -40 9 -22 22 -40 28
-40 8 0 -2 35 -27 98 -22 53 -42 99 -44 101 -2 2 -7 -5 -11 -15z"/>
<path d="M1762 903 c-5 -10 -17 -43 -27 -73 -10 -30 -24 -68 -32 -84 -10 -19
-11 -27 -3 -24 11 3 34 55 44 98 22 87 22 87 60 -22 16 -43 34 -78 41 -78 8 0
-1 33 -27 97 -21 54 -41 99 -43 101 -2 2 -8 -5 -13 -15z"/>
<path d="M2168 820 c-2 -75 0 -100 10 -100 9 0 12 27 12 100 0 55 -4 100 -9
100 -5 0 -11 -45 -13 -100z"/>
<path d="M1768 803 c7 -3 16 -2 19 1 4 3 -2 6 -13 5 -11 0 -14 -3 -6 -6z"/>
<path d="M1241 533 c-1 -95 1 -123 11 -123 10 0 12 23 10 96 l-3 96 95 -99 95
-98 1 123 c0 84 -3 122 -11 122 -8 0 -10 -28 -7 -95 3 -52 2 -95 -1 -95 -3 0
-47 44 -97 97 l-92 98 -1 -122z"/>
<path d="M1585 598 c-10 -29 -31 -83 -46 -120 -16 -42 -22 -68 -15 -68 6 0 24
41 41 91 16 50 33 93 36 95 8 5 29 -51 29 -77 0 -11 4 -19 8 -19 4 0 14 -20
21 -45 10 -34 18 -45 33 -45 15 0 18 3 10 13 -5 6 -29 60 -52 120 -23 59 -43
107 -44 107 -1 0 -10 -24 -21 -52z"/>
<path d="M1775 530 c0 -100 2 -120 15 -120 12 0 14 11 12 50 -4 47 -3 50 20
50 17 0 38 -15 67 -50 23 -27 49 -50 58 -50 9 0 -2 18 -31 51 -45 50 -55 69
-37 69 5 0 14 15 20 32 10 28 9 36 -7 58 -15 20 -29 26 -68 28 l-49 3 0 -121z
m89 94 c19 -18 21 -75 4 -92 -7 -7 -25 -12 -40 -12 -28 0 -28 1 -28 60 0 57 1
60 24 60 14 0 32 -7 40 -16z"/>
<path d="M2177 547 l-47 -100 -47 96 c-26 53 -50 97 -53 97 -4 0 -10 -35 -14
-77 -4 -43 -10 -95 -13 -115 -3 -23 -2 -38 5 -38 5 0 13 41 17 93 l8 92 38
-79 c22 -44 43 -84 49 -90 7 -7 22 17 47 72 21 45 40 82 44 82 3 0 10 -37 15
-82 8 -71 12 -83 29 -87 15 -3 17 0 8 10 -6 8 -14 52 -18 97 -12 142 -14 143
-68 29z"/>
<path d="M2345 530 l0 -120 58 0 c31 0 57 3 57 8 0 4 -18 6 -40 4 l-40 -4 0
57 0 57 35 -4 c21 -2 35 0 35 7 0 7 -14 9 -35 7 l-35 -4 0 52 0 52 35 -4 c19
-2 35 0 35 4 0 4 -24 8 -52 8 l-53 0 0 -120z"/>
<path d="M2545 530 c0 -100 3 -120 15 -120 12 0 14 11 12 50 -4 47 -3 50 21
50 16 0 33 -11 51 -34 40 -53 56 -66 79 -65 21 0 21 1 2 10 -11 6 -35 30 -54
55 -31 40 -32 46 -19 62 30 33 31 60 4 87 -19 19 -35 25 -68 25 l-43 0 0 -120z
m89 94 c35 -35 12 -104 -34 -104 -30 0 -30 0 -30 60 0 57 1 60 24 60 14 0 32
-7 40 -16z"/>
<path d="M1296 296 c10 -8 21 -12 24 -10 5 6 -21 24 -34 24 -6 0 -1 -6 10 -14z"/>
<path d="M1478 303 c7 -3 16 -2 19 1 4 3 -2 6 -13 5 -11 0 -14 -3 -6 -6z"/>
<path d="M1976 291 c47 -21 54 -35 54 -97 0 -34 -6 -51 -25 -69 -13 -14 -20
-25 -16 -25 5 0 20 12 34 26 31 31 42 78 28 117 -12 30 -65 67 -96 67 -13 0
-5 -7 21 -19z"/>
<path d="M2226 291 c47 -21 54 -35 54 -97 0 -34 -6 -51 -25 -69 -31 -32 -16
-33 18 -1 55 51 40 143 -28 172 -51 21 -67 17 -19 -5z"/>
<path d="M1242 288 c-21 -21 -13 -49 28 -90 46 -47 50 -68 18 -92 l-23 -17 22
11 c52 25 50 69 -5 115 -27 23 -33 34 -30 57 5 32 6 32 -10 16z"/>
<path d="M1407 280 c-67 -53 -28 -182 55 -179 23 0 23 0 -2 10 -38 16 -59 39
-66 75 -7 40 1 69 29 94 27 26 17 26 -16 0z"/>
<path d="M1511 297 c2 -1 12 -9 22 -16 14 -12 17 -11 17 3 0 10 -8 16 -22 16
-12 0 -19 -1 -17 -3z"/>
<path d="M1620 200 c0 -73 3 -100 13 -100 8 0 11 18 10 62 -1 35 -2 80 -2 101
-1 20 -5 37 -11 37 -6 0 -10 -40 -10 -100z"/>
<path d="M1760 200 c0 -73 3 -100 13 -100 9 0 12 27 12 100 0 73 -3 100 -12
100 -10 0 -13 -27 -13 -100z"/>
<path d="M1889 287 c-63 -48 -46 -160 29 -188 35 -13 39 -4 6 13 -57 27 -74
119 -29 163 25 26 22 33 -6 12z"/>
<path d="M2126 274 c-34 -35 -38 -96 -9 -140 15 -24 75 -49 96 -41 6 3 2 6
-11 6 -13 1 -37 14 -53 30 -39 40 -41 109 -4 146 13 14 20 25 16 25 -5 0 -20
-12 -35 -26z"/>
<path d="M2375 200 l0 -100 47 0 c26 0 49 3 52 8 2 4 -13 6 -35 4 l-39 -4 0
96 c0 70 -3 96 -12 96 -10 0 -13 -27 -13 -100z"/>
<path d="M1220 115 c0 -2 10 -10 23 -16 20 -11 21 -11 8 4 -13 16 -31 23 -31
12z"/>
<path d="M1510 105 c-16 -9 -19 -14 -9 -15 8 0 24 7 35 15 24 18 7 19 -26 0z"/>
</g>
</svg>
